# WaveFront *.obj file (generated by Cinema 4D)

mtllib ./book1.mtl

v 26.590249 -75.447568 45.848392
v 27.493211 -70.142741 45.848392
v 82.781902 -75.319149 45.848392
v 80.917949 -70.271159 45.848392
v 82.781902 -75.319149 -45.848392
v 80.917949 -70.271159 -45.848392
v 26.590249 -75.447568 -45.848392
v 27.493211 -70.142741 -45.848392
v -31.175091 -65.161599 45.848392
v -28.255139 -60.641597 45.848392
v -31.175091 -65.161599 -45.848392
v -28.255139 -60.641597 -45.848392
# 12 vertices

vn 0.000000 0.000000 1.000000
vn 0.938092 0.346387 0.000000
vn 0.000000 0.000000 -1.000000
vn -0.839973 0.542628 0.000000
vn -0.839973 0.542628 0.000000
vn -0.175307 -0.984514 0.000000
vn -0.086857 -0.996221 0.000000
vn 0.002285 -0.999997 0.000000
vn 0.938092 0.346387 0.000000
vn 0.000000 0.000000 -1.000000
vn 0.000000 0.000000 1.000000
# 11 normals

vt 0.000000 0.000000 0.000000
vt 0.000000 1.000000 0.000000
vt 1.000000 1.000000 0.000000
vt 1.000000 0.000000 0.000000
# 4 texture coordinates

o ?
usemtl ??.3
f 4/3/1 2/2/1 1/1/1
f 6/3/2 4/2/2 3/1/2
f 8/3/3 6/2/3 5/1/3
f 10/3/4 12/2/5 11/1/4
f 7/1/7 1/4/7 9/4/6
f 3/3/8 1/2/7 7/1/7
f 8/2/3 7/1/3 11/1/3
f 1/4/1 2/3/1 10/3/1
f 3/4/1 4/3/1 1/1/1
f 5/4/9 6/3/2 3/1/2
f 7/4/3 8/3/3 5/1/3
f 9/4/5 10/3/4 11/1/4
f 11/1/6 7/1/7 9/4/6
f 5/4/8 3/3/8 7/1/7
f 12/2/10 8/2/3 11/1/3
f 9/4/11 1/4/1 10/3/1

