# WaveFront *.obj file (generated by Cinema 4D)

mtllib ./bookface.mtl

v 27.493211 -70.142741 45.848392
v 80.917949 -70.271159 45.848392
v 80.917949 -70.271159 -45.848392
v 27.493211 -70.142741 -45.848392
v -28.255139 -60.641597 45.848392
v -28.255139 -60.641597 -45.848392
# 6 vertices

vn 0.085501 0.996338 0.000000
vn 0.002404 0.999997 0.000000
vn 0.168007 0.985786 0.000000
# 3 normals

vt 0.000000 0.000000 0.000000
vt 0.000000 1.000000 0.000000
vt 1.000000 1.000000 0.000000
vt 1.000000 0.000000 0.000000
# 4 texture coordinates

o ??
usemtl ??.3
f 3/3/2 4/2/1 1/1/1
f 1/3/1 4/2/1 6/2/3
f 2/4/2 3/3/2 1/1/1
f 5/3/3 1/3/1 6/2/3

