# WaveFront *.obj file (generated by Cinema 4D)

mtllib ./pen.mtl

v 108.950056 -73.438552 -37.588463
v 108.950056 -73.438552 37.588463
v 110.946078 -73.438552 -37.588463
v 110.946078 -73.438552 37.588463
v 109.948067 -71.709947 -37.588463
v 109.948067 -71.709947 37.588463
v 107.952046 -71.709947 -37.588463
v 107.952046 -71.709947 37.588463
v 106.954035 -73.438552 -37.588463
v 106.954035 -73.438552 37.588463
v 107.952046 -75.167157 -37.588463
v 107.952046 -75.167157 37.588463
v 109.948067 -75.167157 -37.588463
v 109.948067 -75.167157 37.588463
# 14 vertices

vn 0.000000 0.000000 -1.000000
vn 0.866026 0.499999 0.000000
vn 0.000000 0.000000 1.000000
vn 0.000000 1.000000 0.000000
vn -0.866024 0.500002 0.000000
vn -0.866024 0.500002 0.000000
vn -0.866024 -0.500002 0.000000
vn -0.866024 -0.500002 0.000000
vn 0.000000 -1.000000 0.000000
vn 0.866026 -0.499999 0.000000
vn -0.866024 -0.500002 0.000000
# 11 normals

vt 0.500000 0.500000 0.000000
vt 0.000000 0.500000 0.000000
vt 0.250000 0.933013 0.000000
vt 0.000000 1.000000 0.000000
vt 0.000000 0.000000 0.000000
vt 0.166667 1.000000 0.000000
vt 1.000000 0.500000 0.000000
vt 0.750000 0.933013 0.000000
vt 0.166667 0.000000 0.000000
vt 0.333333 1.000000 0.000000
vt 0.333333 0.000000 0.000000
vt 0.500000 1.000000 0.000000
vt 0.750000 0.066987 0.000000
vt 0.500000 0.000000 0.000000
vt 0.666667 1.000000 0.000000
vt 0.250000 0.066987 0.000000
vt 0.666667 0.000000 0.000000
vt 0.833333 1.000000 0.000000
vt 0.833333 0.000000 0.000000
vt 1.000000 1.000000 0.000000
vt 1.000000 0.000000 0.000000
# 21 texture coordinates

o ?
usemtl ??.2
f 5/3/1 3/2/1 1/1/1
f 6/6/2 4/4/2 3/5/2
f 6/8/3 2/1/3 4/7/3
f 7/8/1 5/3/1 1/1/1
f 8/10/4 6/6/4 5/9/4
f 8/3/3 2/1/3 6/8/3
f 9/7/1 7/8/1 1/1/1
f 10/12/5 8/10/6 7/11/5
f 10/2/3 2/1/3 8/3/3
f 11/13/1 9/7/1 1/1/1
f 12/15/7 10/12/8 9/14/7
f 12/16/3 2/1/3 10/2/3
f 13/16/1 11/13/1 1/1/1
f 14/18/9 12/15/9 11/17/9
f 14/13/3 2/1/3 12/16/3
f 3/2/1 13/16/1 1/1/1
f 4/20/10 14/18/10 13/19/10
f 4/7/3 2/1/3 14/13/3
f 5/9/2 6/6/2 3/5/2
f 7/11/4 8/10/4 5/9/4
f 9/14/6 10/12/5 7/11/5
f 11/17/11 12/15/7 9/14/7
f 13/19/9 14/18/9 11/17/9
f 3/21/10 4/20/10 13/19/10

