# WaveFront *.obj file (generated by Cinema 4D)

mtllib ./tableleg.mtl

v -179.350269 -118.723534 65.000000
v -179.350269 -87.723534 65.000000
v -170.350269 -118.723534 65.000000
v -170.350269 -87.723534 65.000000
v -183.850269 -118.723534 57.205771
v -183.850269 -87.723534 57.205771
v -183.850269 -118.723534 72.794229
v -183.850269 -87.723534 72.794229
v -49.350269 -118.723534 65.000000
v -49.350269 -87.723534 65.000000
v -40.350269 -118.723534 65.000000
v -40.350269 -87.723534 65.000000
v -53.850269 -118.723534 57.205771
v -53.850269 -87.723534 57.205771
v -53.850269 -118.723534 72.794229
v -53.850269 -87.723534 72.794229
v -179.350269 -118.723534 -65.000000
v -179.350269 -87.723534 -65.000000
v -170.350269 -118.723534 -65.000000
v -170.350269 -87.723534 -65.000000
v -183.850269 -118.723534 -72.794229
v -183.850269 -87.723534 -72.794229
v -183.850269 -118.723534 -57.205771
v -183.850269 -87.723534 -57.205771
v -49.350269 -118.723534 -65.000000
v -49.350269 -87.723534 -65.000000
v -40.350269 -118.723534 -65.000000
v -40.350269 -87.723534 -65.000000
v -53.850269 -118.723534 -72.794229
v -53.850269 -87.723534 -72.794229
v -53.850269 -118.723534 -57.205771
v -53.850269 -87.723534 -57.205771
v 175.448015 -243.355243 77.000000
v 175.448015 -83.508036 77.000000
v 184.448015 -243.355243 77.000000
v 184.448015 -83.508036 77.000000
v 170.948015 -243.355243 69.205771
v 170.948015 -83.508036 69.205771
v 170.948015 -243.355243 84.794229
v 170.948015 -83.508036 84.794229
v 175.448015 -243.355243 -77.000000
v 175.448015 -83.508036 -77.000000
v 184.448015 -243.355243 -77.000000
v 184.448015 -83.508036 -77.000000
v 170.948015 -243.355243 -84.794229
v 170.948015 -83.508036 -84.794229
v 170.948015 -243.355243 -69.205771
v 170.948015 -83.508036 -69.205771
# 48 vertices

vn 0.000000 -1.000000 0.000000
vn 0.500000 0.000000 -0.866025
vn 0.500000 0.000000 -0.866025
vn 0.000000 1.000000 0.000000
vn -1.000000 0.000000 0.000000
vn 0.500000 0.000000 0.866025
vn 0.500000 0.000000 -0.866025
vn 0.500000 0.000000 -0.866025
vn 0.500000 0.000000 0.866025
# 9 normals

vt 0.500000 0.500000 0.000000
vt 0.000000 0.500000 0.000000
vt 0.750000 0.933013 0.000000
vt 0.000000 1.000000 0.000000
vt 0.000000 0.000000 0.000000
vt 0.333333 1.000000 0.000000
vt 1.000000 0.500000 0.000000
vt 0.250000 0.933013 0.000000
vt 31.037109 449.000000 0.000267
vt 0.750000 0.066987 0.000000
vt 0.333333 0.000000 0.000000
vt 0.666667 1.000000 0.000000
vt 0.250000 0.066987 0.000000
vt -0.000000 1.000000 0.000000
vt 0.666667 0.000000 0.000000
vt 1.000000 1.000000 0.000000
vt -0.002275 1.000000 0.000000
vt -0.000000 1.000000 0.000000
vt -nan -nan -nan
vt -100000.000000 -0.787500 0.000000
vt 0.000000 -0.875000 0.000000
vt -100000.000000 100001.000000 -100000.000000
vt 1.000000 0.000000 0.000000
# 23 texture coordinates

o ??
usemtl ??.1
f 5/3/1 3/2/1 1/1/1
f 6/6/2 4/4/3 3/5/2
f 6/8/4 2/1/4 4/7/4
f 7/10/1 5/3/1 1/1/1
f 8/12/5 6/6/5 5/11/5
f 8/13/4 2/1/4 6/8/4
f 3/2/1 7/10/1 1/1/1
f 4/16/6 8/12/6 7/15/6
f 4/7/4 2/1/4 8/13/4
f 13/3/1 11/2/1 9/1/1
f 14/6/2 12/4/3 11/5/2
f 14/8/4 10/1/4 12/7/4
f 15/10/1 13/3/1 9/1/1
f 16/12/5 14/6/5 13/11/5
f 16/13/4 10/1/4 14/8/4
f 11/2/1 15/10/1 9/1/1
f 12/16/6 16/12/6 15/15/6
f 12/7/4 10/1/4 16/13/4
f 21/3/1 19/2/1 17/1/1
f 22/6/2 20/4/3 19/5/2
f 22/8/4 18/1/4 20/7/4
f 23/10/1 21/3/1 17/1/1
f 24/12/5 22/6/5 21/11/5
f 24/13/4 18/1/4 22/8/4
f 19/2/1 23/10/1 17/1/1
f 20/16/6 24/12/6 23/15/6
f 20/7/4 18/1/4 24/13/4
f 29/3/1 27/2/1 25/1/1
f 30/6/2 28/4/3 27/5/2
f 30/8/4 26/1/4 28/7/4
f 31/10/1 29/3/1 25/1/1
f 32/12/5 30/6/5 29/11/5
f 32/13/4 26/1/4 30/8/4
f 27/2/1 31/10/1 25/1/1
f 28/16/6 32/12/6 31/15/6
f 28/7/4 26/1/4 32/13/4
f 37/3/1 35/2/1 33/1/1
f 38/6/7 36/4/8 35/5/7
f 38/8/4 34/1/4 36/7/4
f 39/10/1 37/3/1 33/1/1
f 40/12/5 38/6/5 37/11/5
f 40/13/4 34/1/4 38/8/4
f 35/2/1 39/10/1 33/1/1
f 36/16/9 40/12/9 39/15/9
f 36/7/4 34/1/4 40/13/4
f 45/3/1 43/2/1 41/1/1
f 46/6/7 44/4/8 43/5/7
f 46/8/4 42/1/4 44/7/4
f 47/10/1 45/3/1 41/1/1
f 48/12/5 46/6/5 45/11/5
f 48/13/4 42/1/4 46/8/4
f 43/2/1 47/10/1 41/1/1
f 44/16/9 48/12/9 47/15/9
f 44/7/4 42/1/4 48/13/4
f 5/11/2 6/6/2 3/5/2
f 7/15/5 8/12/5 5/11/5
f 3/23/6 4/16/6 7/15/6
f 13/11/2 14/6/2 11/5/2
f 15/15/5 16/12/5 13/11/5
f 11/23/6 12/16/6 15/15/6
f 21/11/2 22/6/2 19/5/2
f 23/15/5 24/12/5 21/11/5
f 19/23/6 20/16/6 23/15/6
f 29/11/2 30/6/2 27/5/2
f 31/15/5 32/12/5 29/11/5
f 27/23/6 28/16/6 31/15/6
f 37/11/7 38/6/7 35/5/7
f 39/15/5 40/12/5 37/11/5
f 35/23/9 36/16/9 39/15/9
f 45/11/7 46/6/7 43/5/7
f 47/15/5 48/12/5 45/11/5
f 43/23/9 44/16/9 47/15/9

