# WaveFront *.obj file (generated by Cinema 4D)

mtllib ./table1.mtl

v -198.815516 -240.094600 100.000000
v -198.815516 -112.899323 100.000000
v -30.906998 -240.094600 100.000000
v -30.906998 -112.899323 100.000000
v -30.906998 -240.094600 -100.000000
v -30.906998 -112.899323 -100.000000
v -198.815516 -240.094600 -100.000000
v -198.815516 -112.899323 -100.000000
v -199.823375 -88.397245 100.000000
v -199.823375 -75.448525 100.000000
v 199.823375 -88.397245 100.000000
v 199.823375 -75.448525 100.000000
v 199.823375 -88.397245 -100.000000
v 199.823375 -75.448525 -100.000000
v -199.823375 -88.397245 -100.000000
v -199.823375 -75.448525 -100.000000
# 16 vertices

vn 0.000000 0.000000 1.000000
vn 1.000000 0.000000 0.000000
vn 0.000000 0.000000 -1.000000
vn 0.000000 0.000000 -1.000000
vn -1.000000 0.000000 0.000000
vn 0.000000 1.000000 0.000000
vn 0.000000 -1.000000 0.000000
# 7 normals

vt 0.000000 0.000000 0.000000
vt 0.000000 1.000000 0.000000
vt 1.000000 1.000000 0.000000
vt -0.000000 1.000000 0.000000
vt -0.000000 1.000000 0.000000
vt -0.000000 1.000000 0.000000
vt -0.000000 1.000000 0.000000
vt 1.000000 0.000000 0.000000
vt -0.000000 1.000000 0.000000
vt -0.000000 1.000000 0.000000
vt -0.000000 1.000000 0.000000
vt -0.000000 1.000000 0.000000
# 12 texture coordinates

o ??_??
usemtl Ash - Shader
f 4/3/1 2/2/1 1/1/1
f 6/3/2 4/2/2 3/1/2
f 8/3/3 6/2/4 5/1/3
f 2/3/5 8/2/5 7/1/5
f 6/3/6 8/2/6 2/1/6
f 3/3/7 1/2/7 7/1/7
f 12/3/1 10/2/1 9/1/1
f 14/3/2 12/2/2 11/1/2
f 16/3/3 14/2/4 13/1/3
f 10/3/5 16/2/5 15/1/5
f 14/3/6 16/2/6 10/1/6
f 11/3/7 9/2/7 15/1/7
f 3/8/1 4/3/1 1/1/1
f 5/8/2 6/3/2 3/1/2
f 7/8/3 8/3/3 5/1/3
f 1/8/5 2/3/5 7/1/5
f 4/8/6 6/3/6 2/1/6
f 5/8/7 3/3/7 7/1/7
f 11/8/1 12/3/1 9/1/1
f 13/8/2 14/3/2 11/1/2
f 15/8/3 16/3/3 13/1/3
f 9/8/5 10/3/5 15/1/5
f 12/8/6 14/3/6 10/1/6
f 13/8/7 11/3/7 15/1/7

